<?xml version="1.0" encoding="UTF-8"?>
<svg id="Layer_1" data-name="Layer 1" xmlns="http://www.w3.org/2000/svg" version="1.1" viewBox="0 0 1000 1000">
  <defs>
    <style>
      .cls-1 {
        fill: #fffcb0;
      }

      .cls-1, .cls-2 {
        stroke-width: 0px;
      }

      .cls-2 {
        fill: #d70022;
      }
    </style>
  </defs>
  <circle class="cls-1" cx="497.43" cy="500.38" r="500"/>
  <g>
    <path class="cls-2" d="M500,0C223.86,0,0,223.86,0,500s223.86,500,500,500,500-223.86,500-500S776.14,0,500,0ZM767.55,754.57c-43.59,47.9-98.93,73.28-163.67,76.18-120.6,5.4-223.38-75.52-245.54-193.97-8.61-46.05-8.14-92.28,9.42-136.94,9.24-23.48,23.72-43.41,41.37-61.2,6.9-6.95,13.64-14.08,20.85-20.7,6.38-5.85,13.14-6.44,19.8-2.66,6.95,3.94,11.4,10.54,9.42,16.99-1.57,5.12-5.01,9.98-8.61,14.09-11.44,13.07-24.17,25.08-34.88,38.71-16.07,20.46-21.84,45.13-25.11,70.42-5,38.66-1.67,76.39,12.87,112.82,1.34,3.35,3.25,6.47,5.14,10.2,46.16-45.04,50.41-48.04,102.17-72.24-1.31-1.98-2.54-3.9-3.82-5.77-7.09-10.43-14.88-20.45-21.14-31.36-14.76-25.75-8.61-47.41,17.1-62.37,10.88-6.33,22.01-12.25,33.72-18.75-9.46-8.41-18.55-16.31-27.43-24.44-9.94-9.11-20.07-18.07-29.36-27.83-5.01-5.26-9.11-11.7-12.4-18.23-6.24-12.38-5.04-24.91,3.82-35.46,6.22-7.4,14.06-13.49,21.46-19.84,9.9-8.5,20.43-16.3,30.06-25.1,17.64-16.12,27.34-36.71,32.17-60.07-8.72,0-17.08-.4-25.4.06-58.66,3.25-117.32,6.65-175.97,10.06-48.88,2.85-97.75,5.83-146.63,8.63-7.81.45-15.68.65-23.49.25-10.21-.52-14.96-5.74-15.4-15.76-.46-10.61,3.75-16.38,13.69-18.12,4.26-.75,8.65-1.14,12.98-1.11,73.16.44,146.33.94,219.49,1.48,44.63.32,89.26.75,133.89,1.03,3.55.02,7.1-.73,10.64-1.12.13-.64.26-1.28.39-1.91-1.43-.7-2.79-1.83-4.29-2.05-41.53-6.17-83.07-12.31-124.63-18.33-49.95-7.24-99.93-14.33-149.88-21.57-30.78-4.46-61.55-9.07-92.32-13.65-2.14-.32-4.26-.87-6.35-1.46-10.94-3.09-15.38-10.32-13.04-21.14,2.27-10.51,8.24-14.97,19.61-12.82,36.74,6.95,73.47,14.01,110.07,21.7,92.79,19.49,185.48,39.44,278.27,58.92,8.65,1.82,17.71,2.06,26.59,2.25,12.73.27,22.51,5.29,29.99,15.59,9.07,12.48,18.39,24.78,27.84,36.97,7.68,9.91,14.28,20.33,16.72,32.82,4.34,22.21-4.58,39.48-20.64,53.91-4.53,4.07-9.5,7.67-13.86,11.9-6.36,6.16-7.05,10.85-1.75,17.81,5.39,7.07,11.56,13.56,17.68,20.03,10.16,10.74,19.02,22.17,21.27,37.35,2.64,17.88-4.5,32.79-14.65,46.64-3.2,4.37-7.2,8.15-10.68,12.33-3.05,3.67-6.27,7.29-8.73,11.34-5.8,9.53-6.94,18.71-.4,29.19,8.85,14.18,19.56,24.82,35.57,30.94,29.79,11.37,56.04,28.74,79.36,50.51,5.86,5.47,11.96,10.69,18.93,16.89,3.92-13.64,8.52-26.08,11.01-38.92,11.81-60.85,4.98-118.3-33.59-169.15-16.33-21.53-37.59-37.24-61.55-49.52-5.56-2.85-11.12-6.05-15.85-10.06-5.5-4.68-6.13-11.05-3.03-17.9,2.84-6.28,7.62-10.64,14.68-9.79,5.9.71,11.98,2.4,17.32,5.01,63.69,31.14,102.71,81.72,117.1,150.96,17.06,82.11-1.88,155.24-58.36,217.32Z"/>
    <path class="cls-2" d="M545.08,593.53c.74.96,1.85,1.64,4.3,3.75-.29-3.47-.14-5.38-.66-7.09-1.55-5.2-3.49-10.29-5.05-15.49-4.76-15.88-1.31-29.69,10.92-41.01,6.06-5.61,12.54-10.77,18.66-16.32,7.23-6.56,14.75-12.91,21.27-20.14,6.67-7.39,6.08-12.96-.88-19.94-3.36-3.38-7.19-6.3-10.89-9.32-11.62-9.48-23.81-18.33-34.78-28.5-11.11-10.29-15.63-23.53-11.02-38.6,3.5-11.44,11.96-18.87,21.88-24.92,9.46-5.77,19.15-11.25,28.11-17.73,10.43-7.54,15.98-18.4,13.52-31.23-2.2-11.51-6.54-22.61-9.94-33.88-.66.25-1.32.5-1.98.75-5.03,10.1-9.64,20.44-15.16,30.26-15.89,28.3-38.39,50.3-65.55,67.83-13.79,8.9-14.44,12.73-2.84,24.55,9.26,9.44,19.73,17.69,29.58,26.57,7.9,7.12,16.59,13.61,23.32,21.72,14.01,16.87,12.03,35.33-4.68,49.43-5.59,4.71-12.27,8.15-18.56,11.98-5,3.05-10.43,5.46-15.22,8.81-7.53,5.27-8.82,12.85-3.51,20.03,9.57,12.94,19.39,25.7,29.15,38.5Z"/>
    <path class="cls-2" d="M572.79,405.84c-5.69,4.65-5.93,7.76-.87,12.96,3.47,3.57,7.35,6.78,11.26,9.9,11.54,9.24,23.82,17.66,34.65,27.66,17.33,16.01,19.06,35.85,5.09,55.01-6.49,8.91-14.34,16.91-22.15,24.75-6.11,6.14-13.35,11.15-19.64,17.14-4.51,4.29-7.62,9.71-5.5,16.35,4.17,13.05,24.23,23.9,38.52,20.7-.55-1.42-1.02-2.81-1.62-4.13-8.4-18.63-6.88-36.52,4.84-53.15,4.98-7.07,10.7-13.74,16.82-19.85,18-17.96,18.31-30.68,1.7-49.44-8.76-9.89-17.35-20.22-24.19-31.46-11.59-19.03-8.88-34.95,7.12-50.56,5.9-5.76,12.77-10.53,18.67-16.29,13.37-13.07,11.64-28.67-4.5-39.77-.12,2.41-.28,4.5-.33,6.59-.55,22.08-8.95,40.08-27.62,52.61-7.22,4.85-14.66,9.36-21.97,14.06-3.47,2.23-7.09,4.32-10.27,6.91Z"/>
    <path class="cls-2" d="M520.86,782.6c39.4,17.67,117.24,17.32,142.52-.43-39.55-43.04-111.86-39.86-142.52.43Z"/>
    <path class="cls-2" d="M737.2,686.22c-53.99-51.75-118.18-68.56-190.69-53.22-45.44,9.61-82.6,33.62-111.49,70.11-7.3,9.22-6.45,13.8,3.08,19.16,79.49-87.97,220.31-91.76,308.69,2.78,3.23-3.93,6.41-7.26,8.86-11.06.94-1.45,1.08-4.66.11-5.9-5.91-7.51-11.68-15.29-18.55-21.87Z"/>
    <path class="cls-2" d="M463.28,749.62c4.18,3.1,8.35,6.19,12.52,9.29,7.83,5.8,7.74,5.71,14.76-.85,28.59-26.74,61.88-42.5,101.62-42.31,38.25.18,70.44,15.39,98.35,40.72,6.37,5.78,12.95,6.66,20.08,2.07,3.42-2.2,6.39-5.11,9.57-7.69-65.64-80.54-191.36-79.11-256.9-1.22Z"/>
  </g>
</svg>