<?xml version="1.0" encoding="UTF-8"?>
<svg id="Layer_1" data-name="Layer 1" xmlns="http://www.w3.org/2000/svg" viewBox="0 0 514.3 204.33">
  <defs>
    <style>
      .cls-1 {
        stroke: #000;
        stroke-miterlimit: 10;
        stroke-width: .5px;
      }

      .cls-1, .cls-2 {
        fill: #fffcb0;
      }

      .cls-2, .cls-3 {
        stroke-width: 0px;
      }

      .cls-3 {
        fill: #d70022;
      }
    </style>
  </defs>
  <g>
    <circle class="cls-2" cx="101.64" cy="102.24" r="100.44"/>
    <g>
      <path class="cls-3" d="M102.16,0C45.74,0,0,45.74,0,102.16s45.74,102.16,102.16,102.16,102.16-45.74,102.16-102.16S158.59,0,102.16,0ZM156.83,154.18c-8.91,9.79-20.21,14.97-33.44,15.57-24.64,1.1-45.64-15.43-50.17-39.63-1.76-9.41-1.66-18.86,1.93-27.98,1.89-4.8,4.85-8.87,8.45-12.51,1.41-1.42,2.79-2.88,4.26-4.23,1.3-1.2,2.68-1.32,4.05-.54,1.42.81,2.33,2.15,1.92,3.47-.32,1.05-1.02,2.04-1.76,2.88-2.34,2.67-4.94,5.13-7.13,7.91-3.28,4.18-4.46,9.22-5.13,14.39-1.02,7.9-.34,15.61,2.63,23.05.27.68.66,1.32,1.05,2.08,9.43-9.2,10.3-9.82,20.88-14.76-.27-.41-.52-.8-.78-1.18-1.45-2.13-3.04-4.18-4.32-6.41-3.02-5.26-1.76-9.69,3.49-12.74,2.22-1.29,4.5-2.5,6.89-3.83-1.93-1.72-3.79-3.33-5.61-4.99-2.03-1.86-4.1-3.69-6-5.69-1.02-1.08-1.86-2.39-2.53-3.72-1.27-2.53-1.03-5.09.78-7.25,1.27-1.51,2.87-2.76,4.38-4.05,2.02-1.74,4.17-3.33,6.14-5.13,3.61-3.29,5.59-7.5,6.57-12.27-1.78,0-3.49-.08-5.19.01-11.99.66-23.97,1.36-35.96,2.06-9.99.58-19.97,1.19-29.96,1.76-1.6.09-3.2.13-4.8.05-2.09-.11-3.06-1.17-3.15-3.22-.09-2.17.77-3.35,2.8-3.7.87-.15,1.77-.23,2.65-.23,14.95.09,29.9.19,44.85.3,9.12.07,18.24.15,27.36.21.72,0,1.45-.15,2.17-.23.03-.13.05-.26.08-.39-.29-.14-.57-.37-.88-.42-8.49-1.26-16.97-2.51-25.47-3.75-10.21-1.48-20.42-2.93-30.63-4.41-6.29-.91-12.58-1.85-18.86-2.79-.44-.07-.87-.18-1.3-.3-2.24-.63-3.14-2.11-2.66-4.32.46-2.15,1.68-3.06,4.01-2.62,7.51,1.42,15.01,2.86,22.49,4.43,18.96,3.98,37.9,8.06,56.86,12.04,1.77.37,3.62.42,5.43.46,2.6.06,4.6,1.08,6.13,3.18,1.85,2.55,3.76,5.06,5.69,7.55,1.57,2.03,2.92,4.15,3.42,6.71.89,4.54-.94,8.07-4.22,11.02-.93.83-1.94,1.57-2.83,2.43-1.3,1.26-1.44,2.22-.36,3.64,1.1,1.44,2.36,2.77,3.61,4.09,2.08,2.2,3.89,4.53,4.35,7.63.54,3.65-.92,6.7-2.99,9.53-.65.89-1.47,1.66-2.18,2.52-.62.75-1.28,1.49-1.78,2.32-1.18,1.95-1.42,3.82-.08,5.96,1.81,2.9,4,5.07,7.27,6.32,6.09,2.32,11.45,5.87,16.22,10.32,1.2,1.12,2.44,2.18,3.87,3.45.8-2.79,1.74-5.33,2.25-7.95,2.41-12.43,1.02-24.17-6.86-34.56-3.34-4.4-7.68-7.61-12.58-10.12-1.14-.58-2.27-1.24-3.24-2.06-1.12-.96-1.25-2.26-.62-3.66.58-1.28,1.56-2.17,3-2,1.21.15,2.45.49,3.54,1.02,13.01,6.36,20.99,16.7,23.93,30.85,3.49,16.78-.38,31.72-11.93,44.4Z"/>
      <path class="cls-3" d="M111.37,121.27c.15.2.38.33.88.77-.06-.71-.03-1.1-.13-1.45-.32-1.06-.71-2.1-1.03-3.16-.97-3.24-.27-6.07,2.23-8.38,1.24-1.15,2.56-2.2,3.81-3.33,1.48-1.34,3.01-2.64,4.35-4.11,1.36-1.51,1.24-2.65-.18-4.07-.69-.69-1.47-1.29-2.23-1.9-2.37-1.94-4.87-3.75-7.11-5.82-2.27-2.1-3.19-4.81-2.25-7.89.71-2.34,2.44-3.86,4.47-5.09,1.93-1.18,3.91-2.3,5.74-3.62,2.13-1.54,3.26-3.76,2.76-6.38-.45-2.35-1.34-4.62-2.03-6.92-.13.05-.27.1-.4.15-1.03,2.06-1.97,4.18-3.1,6.18-3.25,5.78-7.84,10.28-13.39,13.86-2.82,1.82-2.95,2.6-.58,5.02,1.89,1.93,4.03,3.62,6.04,5.43,1.61,1.45,3.39,2.78,4.76,4.44,2.86,3.45,2.46,7.22-.96,10.1-1.14.96-2.51,1.66-3.79,2.45-1.02.62-2.13,1.12-3.11,1.8-1.54,1.08-1.8,2.63-.72,4.09,1.95,2.64,3.96,5.25,5.96,7.87Z"/>
      <path class="cls-3" d="M117.04,82.92c-1.16.95-1.21,1.58-.18,2.65.71.73,1.5,1.39,2.3,2.02,2.36,1.89,4.87,3.61,7.08,5.65,3.54,3.27,3.89,7.32,1.04,11.24-1.33,1.82-2.93,3.45-4.52,5.06-1.25,1.25-2.73,2.28-4.01,3.5-.92.88-1.56,1.99-1.12,3.34.85,2.67,4.95,4.88,7.87,4.23-.11-.29-.21-.57-.33-.84-1.72-3.81-1.41-7.46.99-10.86,1.02-1.44,2.19-2.81,3.44-4.06,3.68-3.67,3.74-6.27.35-10.1-1.79-2.02-3.54-4.13-4.94-6.43-2.37-3.89-1.82-7.14,1.45-10.33,1.21-1.18,2.61-2.15,3.81-3.33,2.73-2.67,2.38-5.86-.92-8.13-.03.49-.06.92-.07,1.35-.11,4.51-1.83,8.19-5.64,10.75-1.47.99-3,1.91-4.49,2.87-.71.46-1.45.88-2.1,1.41Z"/>
      <path class="cls-3" d="M106.43,159.91c8.05,3.61,23.96,3.54,29.12-.09-8.08-8.79-22.86-8.14-29.12.09Z"/>
      <path class="cls-3" d="M150.63,140.21c-11.03-10.57-24.15-14.01-38.96-10.87-9.28,1.96-16.88,6.87-22.78,14.33-1.49,1.88-1.32,2.82.63,3.91,16.24-17.98,45.01-18.75,63.07.57.66-.8,1.31-1.48,1.81-2.26.19-.3.22-.95.02-1.21-1.21-1.53-2.39-3.12-3.79-4.47Z"/>
      <path class="cls-3" d="M94.66,153.17c.86.63,1.71,1.27,2.56,1.9,1.6,1.19,1.58,1.17,3.02-.17,5.84-5.46,12.64-8.68,20.76-8.65,7.82.04,14.39,3.15,20.1,8.32,1.3,1.18,2.65,1.36,4.1.42.7-.45,1.31-1.04,1.95-1.57-13.41-16.46-39.1-16.16-52.49-.25Z"/>
    </g>
  </g>
  <g>
    <path class="cls-1" d="M241.26,71.83h29.18l24.06,75.42h-22.91l-3.66-13.49h-24.06l-3.66,13.49h-22.91l23.95-75.42ZM248.37,116.7h14.75l-6.9-27.61h-.94l-6.9,27.61Z"/>
    <path class="cls-1" d="M299.42,71.93h21.97v30.54l6.17-2.09c7.01-2.41,12.13-9.52,12.24-25.42,0-.94,0-1.99-.1-3.03h22.38c.1,2.41.1,4.92.1,7.32,0,11.92-3.56,24.16-15.69,32.01l5.12,9.83c3.97,7.64,7.53,8.47,14.64,8.47v17.89c-3.03.31-5.86.42-8.37.42-13.6,0-20.71-7.32-31.28-29.81l-5.23,1.88v27.3h-21.97v-75.31Z"/>
    <path class="cls-1" d="M373.89,71.93h21.97v75.31h-21.97v-75.31Z"/>
    <path class="cls-1" d="M410.39,169.94l-12.76-14.33c6.69-6.17,10.35-12.13,10.35-19.46v-64.22h21.97v62.66c0,14.43-7.22,25.31-19.56,35.35Z"/>
    <path class="cls-1" d="M474.93,70.68c23.85,0,36.5,13.6,36.5,38.91s-12.66,38.91-36.5,38.91-36.5-13.6-36.5-38.91,12.66-38.91,36.5-38.91ZM474.93,131.34c9.62,0,14.12-6.69,14.12-21.76s-4.5-21.65-14.12-21.65-14.12,6.59-14.12,21.65,4.6,21.76,14.12,21.76Z"/>
  </g>
</svg>